<svg xmlns="http://www.w3.org/2000/svg" xmlns:xlink="http://www.w3.org/1999/xlink" xmlns:inkscape="http://www.inkscape.org/namespaces/inkscape" version="1.1" width="283.4646" height="283.4646" viewBox="0 0 283.4646 283.4646">
<path transform="matrix(1,0,0,-1,0,283.4646)" d="M131.7966 212.1228C138.1839 209.503 141.6759 204.6903 142.2723 197.6848 142.4086 198.5632 142.5574 199.5973 142.7193 200.7876 147.399 195.8896 149.5783 187.8548 145.1741 182.0778 144.0624 180.6197 142.6141 179.5816 140.8294 178.9634 140.5488 180.7132 140.8819 182.3666 141.8287 183.9243 144.0102 187.6022 144.2361 190.9689 142.5067 194.0241 142.7933 192.0308 142.3247 191.1481 141.101 191.3766 139.4243 191.8769 138.6499 193.019 138.7777 194.8025 138.6383 199.5752 137.1526 203.3923 134.3205 206.2534 134.7021 203.3246 133.9447 201.5887 132.7504 199.6529 131.5111 197.6443 130.2659 195.7881 129.1666 193.6729 127.4769 190.4213 126.1522 185.7356 129.6014 183.1085 130.3645 180.2143 130.7458 178.7675 130.7458 178.7675 122.7756 181.4958 121.9785 189.1831 125.4813 195.5333 128.3961 200.8176 133.3539 204.9891 131.7966 212.1228" fill="#578aa9" fill-rule="evenodd"/>
<path transform="matrix(1,0,0,-1,0,283.4646)" d="M93.02 125.2054C92.9407 159.6243 92.901 176.8337 92.901 176.8337 100.0998 176.8337 103.699 176.8337 103.699 176.8337 120.0129 157.1564 128.1696 147.3177 128.1696 147.3177 129.0118 140.5123 131.0136 135.3175 134.1751 131.7334 136.3805 128.4727 139.8966 125.6652 144.7231 123.3108 144.7231 121.5026 144.7231 120.5986 144.7231 120.5986 137.3717 120.551 133.6958 120.5271 133.6958 120.5271 114.7612 143.6284 105.294 155.1793 105.294 155.1793 105.404 135.0374 105.459 124.9665 105.459 124.9665 107.051 123.8091 107.8469 123.2306 107.8469 123.2306 107.8469 121.4855 107.8469 120.6128 107.8469 120.6128 96.5769 120.6162 90.942 120.6179 90.942 120.6179 90.9062 122.3989 90.8881 123.2895 90.8881 123.2895 91.9358 124.147 92.6464 124.7856 93.02 125.2054" fill="#001833" fill-rule="evenodd"/>
<path transform="matrix(1,0,0,-1,0,283.4646)" d="M133.8386 178.0449C132.9763 178.0917 131.8609 178.3621 130.4921 178.8568 126.9765 185.2724 129.0954 192.585 136.0131 195.2609 136.0672 193.5652 136.5401 192.0662 137.4316 190.7634 138.3517 189.419 139.5791 188.4898 140.5225 187.0106 142.2357 184.324 142.3587 181.6648 140.8294 178.9634 139.7276 178.4191 138.6697 178.1186 137.6549 178.0622 139.1783 183.4824 137.4769 185.9859 133.4273 189.2679 131.508 185.2563 131.9187 183.4053 133.6737 179.663 134.0824 178.8724 134.1374 178.3329 133.8386 178.0449" fill="#dbba4c" fill-rule="evenodd"/>
<path transform="matrix(1,0,0,-1,0,283.4646)" d="M182.1631 88.9832C182.0849 94.0184 182.0455 96.5361 182.0455 96.5361H187.6961C187.7374 89.3954 187.7581 85.8251 187.7581 85.8251 184.3883 83.4463 180.9391 82.2988 177.4103 82.3825 167.6514 83.1421 160.8732 90.2163 163.9054 100.0755 165.5473 104.036 168.1965 106.6853 171.8532 108.0238 178.0843 109.8831 183.1062 109.1367 188.2293 104.8734 185.5797 102.3069 184.2551 101.0237 184.2551 101.0237 180.3611 105.1594 173.0013 104.7838 170.3988 100.2042 169.1742 98.0487 169.0744 94.3072 170.1777 92.0846 172.4508 87.5047 177.8956 86.7438 182.1631 88.9832ZM222.6005 103.6641 222.6628 108.5686H244.0848V104.4629L230.9085 88.3514H245.1351V82.9216H222.6005V87.1024L236.067 103.6641ZM130.9431 108.6024H138.6536 144.2463 151.9569V103.4983H144.2463V82.8646H138.6536V103.4983H130.9431ZM109.7317 103.4909H115.1073C117.4056 103.4909 119.2859 101.6104 119.2859 99.3124 119.2859 97.014 117.4056 95.1338 115.1073 95.1338H109.7317ZM109.6432 82.9233 103.8339 82.8692V108.6041H115.344C125.8622 107.9918 128.5665 96.0273 120.3548 91.4658L125.7684 82.8147H119.5245L114.8012 90.3614H109.6432ZM200.948 93.1643 205.1504 102.5243 209.217 93.1643ZM196.4747 82.9012 190.3039 82.9253 202.2554 108.7143H208.47L220.123 82.8167H213.4644L211.1598 88.5254H199.0502ZM78.8584 93.1643 82.6761 102.5243 86.3711 93.1643ZM74.7941 82.9012 69.1877 82.9253 80.0461 108.7143H85.6925L96.2796 82.8167H90.2299L88.1362 88.5254H77.1341ZM149.1775 87.478C150.4888 87.478 151.5518 86.4147 151.5518 85.1034 151.5518 83.7921 150.4888 82.7291 149.1775 82.7291 147.8662 82.7291 146.8029 83.7921 146.8029 85.1034 146.8029 86.4147 147.8662 87.478 149.1775 87.478ZM132.0843 87.478C133.3956 87.478 134.4586 86.4147 134.4586 85.1034 134.4586 83.7921 133.3956 82.7291 132.0843 82.7291 130.7727 82.7291 129.7097 83.7921 129.7097 85.1034 129.7097 86.4147 130.7727 87.478 132.0843 87.478ZM99.6446 87.478C100.9559 87.478 102.0192 86.4147 102.0192 85.1034 102.0192 83.7921 100.9559 82.7291 99.6446 82.7291 98.3333 82.7291 97.2703 83.7921 97.2703 85.1034 97.2703 86.4147 98.3333 87.478 99.6446 87.478ZM66.0314 87.478C67.3427 87.478 68.4057 86.4147 68.4057 85.1034 68.4057 83.7921 67.3427 82.7291 66.0314 82.7291 64.7201 82.7291 63.6568 83.7921 63.6568 85.1034 63.6568 86.4147 64.7201 87.478 66.0314 87.478ZM38.3295 82.8323 38.3672 108.5839H43.7372L56.029 93.2502V108.5219H61.7094V82.8414H57.2508L44.6995 98.3526V82.8323Z" fill="#001833" fill-rule="evenodd"/>
<path transform="matrix(1,0,0,-1,0,283.4646)" d="M128.0373 174.202C127.9406 175.9439 127.8921 176.8147 127.8921 176.8147 139.1513 176.8147 144.7809 176.8147 144.7809 176.8147 144.7413 175.1111 144.7214 174.2596 144.7214 174.2596 143.5005 173.2578 142.89 172.7569 142.89 172.7569 142.8715 160.3006 142.8622 154.0723 142.8622 154.0723 142.6997 147.2794 144.2883 141.8363 147.6283 137.7431 154.5809 130.9343 169.6929 128.3751 177.2152 135.5477 177.2427 141.0503 177.2563 143.8016 177.2563 143.8016 177.0321 144.4861 176.3785 145.0959 175.2956 145.6305 175.305 147.5323 175.3098 148.483 175.3098 148.483 185.8686 148.5255 191.1478 148.5468 191.1478 148.5468 191.1478 147.1161 191.1478 146.4009 191.1478 146.4009 191.126 145.7898 190.7759 145.3113 190.0981 144.9652 189.4079 144.6854 189.0921 143.9796 189.1505 142.848 189.1928 134.7418 189.2137 130.6885 189.2137 130.6885 189.1945 130.0975 189.1848 129.8021 189.1848 129.8021 189.157 129.1958 188.9535 128.7485 188.5742 128.4602 183.9869 124.2459 177.6328 121.8875 171.2667 120.9515 153.2801 118.3065 133.6068 126.8592 130.5417 145.283 129.9994 148.5414 130.1227 151.8644 130.1066 155.1597 130.0487 166.8254 130.0195 172.6583 130.0195 172.6583 128.698 173.6875 128.0373 174.202 128.0373 174.202" fill="#001833" fill-rule="evenodd"/>
<path transform="matrix(1,0,0,-1,0,283.4646)" d="M39.1141 71.3435H38.226V76.82H39.1397L42.1509 72.6746 42.1081 76.82H42.9843V71.3435H42.1336L39.0549 75.6108ZM46.9378 73.7082 46.076 75.7891 45.1953 73.7082ZM44.879 72.938 44.1893 71.3435H43.2502L45.6463 76.82H46.5083L48.9047 71.3435H47.9322L47.2584 72.938ZM50.3385 71.3435H49.4507V76.0884H48.3029V76.82H51.4865V76.0884H50.3385ZM52.0183 76.82H52.9058V73.3371C52.9058 72.8416 52.9894 72.4963 53.1547 72.3039 53.3211 72.11 53.6029 72.0136 54.0023 72.0136 54.3813 72.0136 54.65 72.1125 54.8084 72.309 54.9646 72.5054 55.0437 72.8481 55.0437 73.3371V76.82H55.9315V73.3448C55.9315 72.974 55.9089 72.6902 55.8629 72.4912 55.8153 72.2934 55.7391 72.1213 55.6328 71.9765 55.4477 71.7262 55.222 71.5399 54.9561 71.418 54.6902 71.2959 54.3784 71.2358 54.0193 71.2358 53.6258 71.2358 53.2939 71.2947 53.0252 71.4129 52.7553 71.5297 52.5223 71.7157 52.3256 71.9688 52.2162 72.1137 52.1374 72.2767 52.09 72.4578 52.0427 72.6389 52.0183 72.934 52.0183 73.3448ZM57.837 73.9766H58.2908C58.9056 73.9766 59.3626 74.065 59.6628 74.2436 59.963 74.4219 60.1123 74.694 60.1123 75.0586 60.1123 75.4129 59.9834 75.6737 59.726 75.8392 59.4675 76.0048 59.0596 76.0884 58.502 76.0884H57.837ZM57.837 71.3435H56.9489V76.82H58.7177C59.453 76.82 60.0148 76.6687 60.4026 76.3642 60.789 76.0612 60.9831 75.6224 60.9831 75.0484 60.9831 74.6016 60.8207 74.2294 60.4959 73.929 60.1713 73.6299 59.7532 73.4681 59.2418 73.4462L60.9831 71.3435H59.8683L57.837 73.8853ZM64.7056 73.7082 63.8436 75.7891 62.9631 73.7082ZM62.6468 72.938 61.9571 71.3435H61.0177L63.4141 76.82H64.2762L66.6723 71.3435H65.6997L65.0259 72.938ZM69.9049 71.3435H67.0088V76.82H67.8966V72.0984H69.9049ZM75.2593 74.1087H79.0506C79.0075 73.2538 78.6986 72.5618 78.1211 72.0315 77.5423 71.5014 76.8107 71.2358 75.9246 71.2358 75.4648 71.2358 75.041 71.3151 74.6518 71.473 74.2637 71.6309 73.9145 71.8648 73.607 72.1755 73.3456 72.4334 73.1475 72.7274 73.014 73.0573 72.8787 73.3873 72.811 73.7391 72.811 74.1152 72.811 74.499 72.8929 74.8624 73.0553 75.2063 73.2178 75.549 73.4564 75.8585 73.7708 76.1346 74.0684 76.4002 74.4001 76.5992 74.7677 76.7302 75.1343 76.8623 75.5439 76.9277 75.992 76.9277 76.6111 76.9277 77.1557 76.7982 77.6225 76.5388 78.0894 76.2795 78.4417 75.9098 78.6798 75.4311H77.5854C77.3841 75.6646 77.1429 75.8392 76.8611 75.9574 76.5811 76.0754 76.2681 76.1346 75.9231 76.1346 75.6343 76.1346 75.3585 76.0859 75.0971 75.9881 74.8369 75.8906 74.6056 75.748 74.4029 75.5631 74.1917 75.3707 74.0279 75.1459 73.9103 74.8905 73.7923 74.6351 73.7337 74.3746 73.7337 74.1087 73.7337 73.8224 73.7867 73.5528 73.893 73.2986 74.0007 73.0431 74.1529 72.8237 74.3528 72.6375 74.5625 72.4425 74.8052 72.2908 75.0813 72.1831 75.3557 72.0751 75.6371 72.0213 75.9231 72.0213 76.3886 72.0213 76.7993 72.1318 77.1557 72.3538 77.5134 72.576 77.8065 72.9045 78.0367 73.3385H75.2593ZM82.7589 73.7082 81.8969 75.7891 81.0162 73.7082ZM80.7001 72.938 80.0104 71.3435H79.071L81.4674 76.82H82.3292L84.7256 71.3435H83.753L83.0792 72.938ZM84.7386 72.9238H85.5329C85.5473 72.6401 85.6409 72.4141 85.8146 72.2446 85.9884 72.0751 86.214 71.9906 86.4913 71.9906 86.7974 71.9906 87.0415 72.0751 87.2254 72.2446 87.4094 72.4141 87.5015 72.6401 87.5015 72.9238 87.5015 73.1716 87.4338 73.364 87.2986 73.499 87.1651 73.6336 86.8836 73.7609 86.4539 73.8788 86.4312 73.8842 86.3938 73.893 86.3405 73.9046 85.8277 74.0279 85.4555 74.2294 85.2256 74.5106 85.1221 74.6337 85.0445 74.7646 84.9929 74.9032 84.941 75.0421 84.9155 75.191 84.9155 75.3489 84.9155 75.8174 85.0706 76.1961 85.3824 76.4864 85.6939 76.775 86.1021 76.9201 86.6078 76.9201 87.0761 76.9201 87.4539 76.7906 87.7414 76.5312 88.0299 76.2718 88.1878 75.9175 88.2196 75.4671H87.3879C87.3737 75.6853 87.2915 75.8611 87.1421 75.9946 86.9913 76.1292 86.8031 76.1961 86.576 76.1961 86.3317 76.1961 86.1335 76.1216 85.9813 75.9728 85.8277 75.8225 85.7514 75.6312 85.7514 75.3951 85.7514 75.3117 85.7659 75.2346 85.7931 75.1615 85.8217 75.0895 85.8648 75.0214 85.9238 74.9585 86.0443 74.8301 86.3033 74.7198 86.6982 74.6274 86.8805 74.5849 87.0202 74.5489 87.1191 74.5183 87.5242 74.3834 87.8304 74.1858 88.0401 73.9278 88.2499 73.6696 88.3548 73.3603 88.3548 72.9995 88.3548 72.4706 88.1867 72.0445 87.8491 71.7208 87.5129 71.3974 87.0659 71.2358 86.5114 71.2358 85.9884 71.2358 85.5646 71.3911 85.2369 71.7004 84.911 72.0096 84.7443 72.4167 84.7386 72.9238ZM94.5111 73.7082 93.649 75.7891 92.7683 73.7082ZM92.452 72.938 91.7626 71.3435H90.8232L93.2196 76.82H94.0813L96.4777 71.3435H95.5052L94.8314 72.938ZM97.6329 72.0751H98.7103C99.3929 72.0751 99.9329 72.2523 100.3294 72.608 100.7274 72.9624 100.9256 73.4451 100.9256 74.0548 100.9256 74.6878 100.7147 75.1819 100.2937 75.5388 99.8728 75.8945 99.2906 76.0728 98.5465 76.0728H97.6329ZM98.4917 71.3435H96.7708V76.82H98.7446C99.6656 76.82 100.4085 76.5658 100.9746 76.0561 101.5393 75.5478 101.8222 74.8828 101.8222 74.0625 101.8222 73.5965 101.7159 73.1716 101.5047 72.7877 101.2921 72.4039 100.9874 72.0842 100.5897 71.8288 100.3195 71.6556 100.0321 71.5309 99.7262 71.4566 99.4201 71.3806 99.0094 71.3435 98.4917 71.3435ZM104.6608 71.3435H104.135L101.7729 76.82H102.7114L104.3963 72.739 106.0832 76.82H107.0141ZM110.0299 73.7082 109.1679 75.7891 108.2871 73.7082ZM107.9711 72.938 107.2814 71.3435H106.342L108.7384 76.82H109.6002L111.9966 71.3435H111.024L110.3502 72.938ZM113.2209 71.3435H112.333V76.82H113.2466L116.2576 72.6746 116.2148 76.82H117.091V71.3435H116.2406L113.1619 75.6108ZM123.7357 72.7172C123.4698 72.2384 123.1007 71.871 122.6307 71.617 122.161 71.3628 121.6165 71.2358 120.9957 71.2358 120.5362 71.2358 120.1124 71.3151 119.723 71.473 119.3352 71.6309 118.986 71.8648 118.6784 72.1755 118.417 72.4334 118.2189 72.7274 118.0851 73.0573 117.9502 73.3873 117.8824 73.7391 117.8824 74.1152 117.8824 74.4965 117.9643 74.8585 118.1268 75.2 118.2892 75.5427 118.5279 75.8534 118.8422 76.1346 119.1396 76.3951 119.4704 76.5927 119.8335 76.7262 120.1958 76.8611 120.5864 76.9277 121.0045 76.9277 121.6338 76.9277 122.1854 76.7957 122.6611 76.5298 123.1364 76.2642 123.4945 75.888 123.7357 75.4016H122.6911C122.4958 75.6442 122.2529 75.8276 121.9671 75.9495 121.6811 76.0728 121.3566 76.1346 120.9946 76.1346 120.7054 76.1346 120.4299 76.0859 120.1697 75.9881 119.9083 75.8906 119.677 75.748 119.4744 75.5631 119.2632 75.3707 119.0993 75.1459 118.9817 74.8905 118.8638 74.6337 118.8051 74.3732 118.8051 74.1076 118.8051 73.8224 118.8581 73.5528 118.9644 73.2974 119.0721 73.0431 119.2243 72.8237 119.4242 72.6375 119.634 72.4425 119.8766 72.2908 120.1527 72.1831 120.4271 72.0751 120.7083 72.0213 120.9946 72.0213 121.3449 72.0213 121.6627 72.0805 121.9439 72.1998 122.2257 72.3192 122.4587 72.4912 122.6409 72.7172ZM127.8215 71.3435H124.6408V76.82H127.8215V76.0884H125.5286V74.4554H127.8215V73.7391H125.5286V72.0984H127.8215ZM129.7278 72.0751H130.8056C131.4879 72.0751 132.0282 72.2523 132.4247 72.608 132.8224 72.9624 133.0209 73.4451 133.0209 74.0548 133.0209 74.6878 132.8097 75.1819 132.3887 75.5388 131.9678 75.8945 131.3858 76.0728 130.6414 76.0728H129.7278ZM130.587 71.3435H128.8661V76.82H130.8399C131.7606 76.82 132.5035 76.5658 133.0696 76.0561 133.6343 75.5478 133.9172 74.8828 133.9172 74.0625 133.9172 73.5965 133.8109 73.1716 133.5997 72.7877 133.3871 72.4039 133.0826 72.0842 132.6847 71.8288 132.4145 71.6556 132.1271 71.5309 131.8212 71.4566 131.5151 71.3806 131.1043 71.3435 130.587 71.3435ZM138.0895 73.9766H138.5433C139.1581 73.9766 139.6151 74.065 139.9153 74.2436 140.2155 74.4219 140.3649 74.694 140.3649 75.0586 140.3649 75.4129 140.2359 75.6737 139.9785 75.8392 139.72 76.0048 139.3121 76.0884 138.7542 76.0884H138.0895ZM138.0895 71.3435H137.2014V76.82H138.9699C139.7055 76.82 140.2673 76.6687 140.6551 76.3642 141.0415 76.0612 141.2357 75.6224 141.2357 75.0484 141.2357 74.6016 141.0732 74.2294 140.7484 73.929 140.4238 73.6299 140.0057 73.4681 139.4943 73.4462L141.2357 71.3435H140.1208L138.0895 73.8853ZM145.2529 71.3435H142.0719V76.82H145.2529V76.0884H142.96V74.4554H145.2529V73.7391H142.96V72.0984H145.2529ZM148.5125 74.1087H152.3038C152.2607 73.2538 151.9517 72.5618 151.3743 72.0315 150.7955 71.5014 150.0639 71.2358 149.1775 71.2358 148.718 71.2358 148.2942 71.3151 147.9047 71.473 147.5169 71.6309 147.1677 71.8648 146.8602 72.1755 146.5988 72.4334 146.4007 72.7274 146.2669 73.0573 146.1319 73.3873 146.0642 73.7391 146.0642 74.1152 146.0642 74.499 146.1461 74.8624 146.3085 75.2063 146.471 75.549 146.7096 75.8585 147.024 76.1346 147.3214 76.4002 147.6533 76.5992 148.0209 76.7302 148.3875 76.8623 148.7968 76.9277 149.2452 76.9277 149.8643 76.9277 150.4089 76.7982 150.8757 76.5388 151.3426 76.2795 151.6946 75.9098 151.933 75.4311H150.8386C150.637 75.6646 150.3961 75.8392 150.1143 75.9574 149.8343 76.0754 149.521 76.1346 149.1763 76.1346 148.8872 76.1346 148.6117 76.0859 148.3503 75.9881 148.0901 75.8906 147.8588 75.748 147.6561 75.5631 147.4449 75.3707 147.2811 75.1459 147.1635 74.8905 147.0455 74.6351 146.9869 74.3746 146.9869 74.1087 146.9869 73.8224 147.0399 73.5528 147.1459 73.2986 147.2539 73.0431 147.4061 72.8237 147.606 72.6375 147.8157 72.4425 148.0584 72.2908 148.3345 72.1831 148.6089 72.0751 148.89 72.0213 149.1763 72.0213 149.6418 72.0213 150.0525 72.1318 150.4089 72.3538 150.7666 72.576 151.0597 72.9045 151.2896 73.3385H148.5125ZM153.0655 76.82H153.953V73.3371C153.953 72.8416 154.0366 72.4963 154.2019 72.3039 154.3683 72.11 154.65 72.0136 155.0494 72.0136 155.4284 72.0136 155.6972 72.1125 155.8556 72.309 156.0121 72.5054 156.0909 72.8481 156.0909 73.3371V76.82H156.979V73.3448C156.979 72.974 156.956 72.6902 156.9101 72.4912 156.8625 72.2934 156.7862 72.1213 156.6799 71.9765 156.4948 71.7262 156.2692 71.5399 156.0033 71.418 155.7377 71.2959 155.4256 71.2358 155.0667 71.2358 154.673 71.2358 154.3411 71.2947 154.0723 71.4129 153.8025 71.5297 153.5695 71.7157 153.373 71.9688 153.2636 72.1137 153.1845 72.2767 153.1372 72.4578 153.0899 72.6389 153.0655 72.934 153.0655 73.3448ZM160.8925 71.3435H157.9963V76.82H158.8842V72.0984H160.8925ZM164.6535 73.7082 163.7918 75.7891 162.9111 73.7082ZM162.5947 72.938 161.905 71.3435H160.9659L163.362 76.82H164.2241L166.6205 71.3435H165.6479L164.9741 72.938ZM168.0542 71.3435H167.1664V76.0884H166.0187V76.82H169.2023V76.0884H168.0542ZM170.6822 71.3435H169.7944V76.82H170.6822ZM172.3975 74.1076C172.3975 73.8224 172.4505 73.5528 172.5568 73.2974 172.6645 73.0431 172.817 72.8237 173.0169 72.6375 173.2277 72.4425 173.4707 72.2908 173.7451 72.1831 174.0209 72.0751 174.3009 72.0213 174.587 72.0213 175.2219 72.0213 175.7523 72.2228 176.1789 72.6248 176.6055 73.0264 176.8195 73.5259 176.8195 74.1229 176.8195 74.3757 176.7677 74.6172 176.6659 74.8468 176.5638 75.0767 176.4142 75.2873 176.2177 75.4798 175.9847 75.7032 175.7347 75.8687 175.4688 75.9753 175.2046 76.0819 174.9104 76.1346 174.587 76.1346 174.2981 76.1346 174.0237 76.0859 173.7624 75.9881 173.5007 75.8906 173.2697 75.748 173.0667 75.5631 172.8573 75.3707 172.692 75.1459 172.5744 74.8905 172.4562 74.6337 172.3975 74.3732 172.3975 74.1076ZM171.4751 74.1152C171.4751 74.499 171.5567 74.8624 171.7191 75.2063 171.8816 75.549 172.1203 75.8585 172.4346 76.1346 172.7323 76.3951 173.0628 76.5927 173.4259 76.7262 173.7896 76.8611 174.1805 76.9277 174.5986 76.9277 175.0263 76.9277 175.4246 76.8611 175.7908 76.7262 176.1574 76.5927 176.4921 76.3926 176.7949 76.1267 177.1067 75.8534 177.3408 75.5478 177.4976 75.2102 177.6543 74.8712 177.7334 74.5067 177.7334 74.1152 177.7334 73.7274 177.6657 73.3691 177.5307 73.042 177.3969 72.7146 177.1943 72.4218 176.9261 72.1599 176.6083 71.8543 176.2534 71.6247 175.8626 71.4694 175.4705 71.314 175.0467 71.2358 174.5898 71.2358 174.1286 71.2358 173.7048 71.3151 173.3168 71.473 172.9276 71.6309 172.58 71.8648 172.2711 72.1755 172.0094 72.4334 171.8113 72.7274 171.6778 73.0573 171.5426 73.3873 171.4751 73.7391 171.4751 74.1152ZM179.4246 71.3435H178.5365V76.82H179.4501L182.4613 72.6746 182.4185 76.82H183.2947V71.3435H182.4443L179.3656 75.6108ZM188.3976 71.3435H187.5098V76.0884H186.3621V76.82H189.5457V76.0884H188.3976ZM193.3186 71.3435H190.1375V76.82H193.3186V76.0884H191.0256V74.4554H193.3186V73.7391H191.0256V72.0984H193.3186ZM199.9831 72.7172C199.7172 72.2384 199.3482 71.871 198.8782 71.617 198.4085 71.3628 197.8642 71.2358 197.2431 71.2358 196.7837 71.2358 196.3599 71.3151 195.9707 71.473 195.5826 71.6309 195.2334 71.8648 194.9258 72.1755 194.6645 72.4334 194.4663 72.7274 194.3328 73.0573 194.1976 73.3873 194.1299 73.7391 194.1299 74.1152 194.1299 74.4965 194.2118 74.8585 194.3742 75.2 194.5366 75.5427 194.7753 75.8534 195.0897 76.1346 195.3873 76.3951 195.7178 76.5927 196.0809 76.7262 196.4432 76.8611 196.8338 76.9277 197.2519 76.9277 197.8812 76.9277 198.4329 76.7957 198.9085 76.5298 199.3839 76.2642 199.7419 75.888 199.9831 75.4016H198.9386C198.7432 75.6442 198.5006 75.8276 198.2146 75.9495 197.9286 76.0728 197.604 76.1346 197.242 76.1346 196.9529 76.1346 196.6774 76.0859 196.4171 75.9881 196.1558 75.8906 195.9245 75.748 195.7218 75.5631 195.5106 75.3707 195.3468 75.1459 195.2291 74.8905 195.1112 74.6337 195.0525 74.3732 195.0525 74.1076 195.0525 73.8224 195.1055 73.5528 195.2118 73.2974 195.3196 73.0431 195.4718 72.8237 195.6716 72.6375 195.8814 72.4425 196.124 72.2908 196.4001 72.1831 196.6745 72.0751 196.956 72.0213 197.242 72.0213 197.5927 72.0213 197.9101 72.0805 198.1916 72.1998 198.4731 72.3192 198.7061 72.4912 198.8884 72.7172ZM201.7763 71.3435H200.8882V76.82H201.7763V74.4939H204.2759V76.82H205.164V71.3435H204.2759V73.7158H201.7763ZM207.1222 71.3435H206.2341V76.82H207.148L210.1589 72.6746 210.1161 76.82H210.9923V71.3435H210.1419L207.0632 75.6108ZM212.7064 74.1076C212.7064 73.8224 212.7594 73.5528 212.8654 73.2974 212.9734 73.0431 213.1257 72.8237 213.3255 72.6375 213.5364 72.4425 213.7796 72.2908 214.054 72.1831 214.3295 72.0751 214.6096 72.0213 214.8959 72.0213 215.5306 72.0213 216.0609 72.2228 216.4878 72.6248 216.9145 73.0264 217.1282 73.5259 217.1282 74.1229 217.1282 74.3757 217.0766 74.6172 216.9746 74.8468 216.8725 75.0767 216.7231 75.2873 216.5264 75.4798 216.2937 75.7032 216.0437 75.8687 215.7778 75.9753 215.5136 76.0819 215.2191 76.1346 214.8959 76.1346 214.6068 76.1346 214.3324 76.0859 214.071 75.9881 213.8097 75.8906 213.5784 75.748 213.3757 75.5631 213.1659 75.3707 213.0007 75.1459 212.883 74.8905 212.7651 74.6337 212.7064 74.3732 212.7064 74.1076ZM211.7837 74.1152C211.7837 74.499 211.8657 74.8624 212.0281 75.2063 212.1905 75.549 212.4292 75.8585 212.7436 76.1346 213.0409 76.3951 213.3714 76.5927 213.7348 76.7262 214.0982 76.8611 214.4891 76.9277 214.9072 76.9277 215.3353 76.9277 215.7333 76.8611 216.0998 76.7262 216.466 76.5927 216.8008 76.3926 217.1038 76.1267 217.4156 75.8534 217.6498 75.5478 217.8065 75.2102 217.9633 74.8712 218.0421 74.5067 218.0421 74.1152 218.0421 73.7274 217.9746 73.3691 217.8394 73.042 217.7059 72.7146 217.5032 72.4218 217.2348 72.1599 216.9173 71.8543 216.5624 71.6247 216.1715 71.4694 215.7795 71.314 215.3554 71.2358 214.8987 71.2358 214.4375 71.2358 214.0138 71.3151 213.6257 71.473 213.2365 71.6309 212.8887 71.8648 212.5797 72.1755 212.3184 72.4334 212.1202 72.7274 211.9864 73.0573 211.8515 73.3873 211.7837 73.7391 211.7837 74.1152ZM221.7416 71.3435H218.8454V76.82H219.7332V72.0984H221.7416ZM222.7961 74.1076C222.7961 73.8224 222.8491 73.5528 222.9554 73.2974 223.0634 73.0431 223.2156 72.8237 223.4154 72.6375 223.6263 72.4425 223.8693 72.2908 224.1437 72.1831 224.4195 72.0751 224.6995 72.0213 224.9855 72.0213 225.6205 72.0213 226.1509 72.2228 226.5775 72.6248 227.0041 73.0264 227.2181 73.5259 227.2181 74.1229 227.2181 74.3757 227.1662 74.6172 227.0645 74.8468 226.9624 75.0767 226.813 75.2873 226.6163 75.4798 226.3833 75.7032 226.1333 75.8687 225.8677 75.9753 225.6032 76.0819 225.309 76.1346 224.9855 76.1346 224.6967 76.1346 224.4223 76.0859 224.1609 75.9881 223.8996 75.8906 223.6683 75.748 223.4656 75.5631 223.2558 75.3707 223.0906 75.1459 222.9729 74.8905 222.8547 74.6337 222.7961 74.3732 222.7961 74.1076ZM221.8737 74.1152C221.8737 74.499 221.9556 74.8624 222.118 75.2063 222.2804 75.549 222.5188 75.8585 222.8332 76.1346 223.1308 76.3951 223.4614 76.5927 223.8245 76.7262 224.1882 76.8611 224.5791 76.9277 224.9972 76.9277 225.4249 76.9277 225.8232 76.8611 226.1897 76.7262 226.5559 76.5927 226.8907 76.3926 227.1937 76.1267 227.5055 75.8534 227.7397 75.5478 227.8962 75.2102 228.0529 74.8712 228.132 74.5067 228.132 74.1152 228.132 73.7274 228.0643 73.3691 227.9293 73.042 227.7958 72.7146 227.5929 72.4218 227.3247 72.1599 227.0069 71.8543 226.652 71.6247 226.2611 71.4694 225.8691 71.314 225.4453 71.2358 224.9887 71.2358 224.5272 71.2358 224.1034 71.3151 223.7156 71.473 223.3261 71.6309 222.9786 71.8648 222.6696 72.1755 222.4083 72.4334 222.2099 72.7274 222.0763 73.0573 221.9411 73.3873 221.8737 73.7391 221.8737 74.1152ZM231.1072 74.1087H234.8989C234.8558 73.2538 234.5468 72.5618 233.9694 72.0315 233.3903 71.5014 232.6589 71.2358 231.7725 71.2358 231.3128 71.2358 230.889 71.3151 230.4998 71.473 230.1117 71.6309 229.7625 71.8648 229.4552 72.1755 229.1939 72.4334 228.9954 72.7274 228.8619 73.0573 228.7267 73.3873 228.6592 73.7391 228.6592 74.1152 228.6592 74.499 228.7412 74.8624 228.9036 75.2063 229.066 75.549 229.3044 75.8585 229.6188 76.1346 229.9164 76.4002 230.2481 76.5992 230.616 76.7302 230.9822 76.8623 231.3918 76.9277 231.84 76.9277 232.4594 76.9277 233.0036 76.7982 233.4705 76.5388 233.9376 76.2795 234.2897 75.9098 234.5278 75.4311H233.4336C233.2321 75.6646 232.9909 75.8392 232.7094 75.9574 232.429 76.0754 232.1161 76.1346 231.7711 76.1346 231.4823 76.1346 231.2065 76.0859 230.9451 75.9881 230.6852 75.8906 230.4539 75.748 230.2512 75.5631 230.0397 75.3707 229.8762 75.1459 229.7585 74.8905 229.6403 74.6351 229.5816 74.3746 229.5816 74.1087 229.5816 73.8224 229.6346 73.5528 229.7409 73.2986 229.8489 73.0431 230.0012 72.8237 230.201 72.6375 230.4105 72.4425 230.6534 72.2908 230.9292 72.1831 231.2036 72.0751 231.4851 72.0213 231.7711 72.0213 232.2366 72.0213 232.6473 72.1318 233.0036 72.3538 233.3614 72.576 233.6547 72.9045 233.8846 73.3385H231.1072ZM236.6087 71.3435H235.7206V76.82H236.6087ZM240.8581 71.3435H237.6774V76.82H240.8581V76.0884H238.5652V74.4554H240.8581V73.7391H238.5652V72.0984H240.8581ZM241.6224 72.9238H242.4169C242.4311 72.6401 242.5246 72.4141 242.6984 72.2446 242.8724 72.0751 243.0978 71.9906 243.3753 71.9906 243.6812 71.9906 243.9252 72.0751 244.1092 72.2446 244.2932 72.4141 244.3853 72.6401 244.3853 72.9238 244.3853 73.1716 244.3175 73.364 244.1826 73.499 244.0491 73.6336 243.7673 73.7609 243.3376 73.8788 243.3149 73.8842 243.2775 73.893 243.2242 73.9046 242.7114 74.0279 242.3395 74.2294 242.1094 74.5106 242.0059 74.6337 241.9282 74.7646 241.8766 74.9032 241.8248 75.0421 241.7992 75.191 241.7992 75.3489 241.7992 75.8174 241.9543 76.1961 242.2661 76.4864 242.5776 76.775 242.9858 76.9201 243.4915 76.9201 243.9598 76.9201 244.3377 76.7906 244.6251 76.5312 244.9137 76.2718 245.0718 75.9175 245.1033 75.4671H244.2716C244.2574 75.6853 244.1752 75.8611 244.0259 75.9946 243.8751 76.1292 243.6871 76.1961 243.4598 76.1961 243.2157 76.1961 243.0173 76.1216 242.8651 75.9728 242.7114 75.8225 242.6355 75.6312 242.6355 75.3951 242.6355 75.3117 242.6496 75.2346 242.6769 75.1615 242.7055 75.0895 242.7486 75.0214 242.8075 74.9585 242.9283 74.8301 243.1871 74.7198 243.582 74.6274 243.7645 74.5849 243.904 74.5489 244.0029 74.5183 244.408 74.3834 244.7141 74.1858 244.9239 73.9278 245.1336 73.6696 245.2385 73.3603 245.2385 72.9995 245.2385 72.4706 245.0704 72.0445 244.7328 71.7208 244.3966 71.3974 243.9496 71.2358 243.3951 71.2358 242.8724 71.2358 242.4487 71.3911 242.121 71.7004 241.7947 72.0096 241.6283 72.4167 241.6224 72.9238" fill="#001833"/>
<path transform="matrix(1,0,0,-1,0,283.4646)" d="M145.1565 157.9229C145.1517 168.1115 145.1492 173.2056 145.1492 173.2056 156.5909 180.9578 179.2242 179.5776 188.0838 168.3967 188.5363 168.0574 189.3081 168.027 190.3992 168.306 191.4922 167.222 192.0172 166.6661 191.9741 166.6383 185.0502 160.1331 181.5883 156.8803 181.5883 156.8803 181.0054 157.388 180.5856 157.8351 180.3288 158.222 179.547 159.3992 180.9184 160.1671 179.9371 161.337 169.5339 170.5805 153.4297 169.4982 145.1565 157.9229" fill="#001833" fill-rule="evenodd"/>
</svg>
