<svg xmlns="http://www.w3.org/2000/svg" width="600" height="143" viewBox="38 70 600 143">
    <g fill="#001833">
      <path transform="matrix(1,0,0,-1,0,283.4646)" d="M131.7966 212.1228C138.1839 209.503 141.6759 204.6903 142.2723 197.6848 142.4086 198.5632 142.5574 199.5973 142.7193 200.7876 147.399 195.8896 149.5783 187.8548 145.1741 182.0778 144.0624 180.6197 142.6141 179.5816 140.8294 178.9634 140.5488 180.7132 140.8819 182.3666 141.8287 183.9243 144.0102 187.6022 144.2361 190.9689 142.5067 194.0241 142.7933 192.0308 142.3247 191.1481 141.101 191.3766 139.4243 191.8769 138.6499 193.019 138.7777 194.8025 138.6383 199.5752 137.1526 203.3923 134.3205 206.2534 134.7021 203.3246 133.9447 201.5887 132.7504 199.6529 131.5111 197.6443 130.2659 195.7881 129.1666 193.6729 127.4769 190.4213 126.1522 185.7356 129.6014 183.1085 130.3645 180.2143 130.7458 178.7675 130.7458 178.7675 122.7756 181.4958 121.9785 189.1831 125.4813 195.5333 128.3961 200.8176 133.3539 204.9891 131.7966 212.1228" fill-rule="evenodd"/>
      <path transform="matrix(1,0,0,-1,0,283.4646)" d="M93.02 125.2054C92.9407 159.6243 92.901 176.8337 92.901 176.8337 100.0998 176.8337 103.699 176.8337 103.699 176.8337 120.0129 157.1564 128.1696 147.3177 128.1696 147.3177 129.0118 140.5123 131.0136 135.3175 134.1751 131.7334 136.3805 128.4727 139.8966 125.6652 144.7231 123.3108 144.7231 121.5026 144.7231 120.5986 144.7231 120.5986 137.3717 120.551 133.6958 120.5271 133.6958 120.5271 114.7612 143.6284 105.294 155.1793 105.294 155.1793 105.404 135.0374 105.459 124.9665 105.459 124.9665 107.051 123.8091 107.8469 123.2306 107.8469 123.2306 107.8469 121.4855 107.8469 120.6128 107.8469 120.6128 96.5769 120.6162 90.942 120.6179 90.942 120.6179 90.9062 122.3989 90.8881 123.2895 90.8881 123.2895 91.9358 124.147 92.6464 124.7856 93.02 125.2054" fill-rule="evenodd"/>
      <path transform="matrix(1,0,0,-1,0,283.4646)" d="M133.8386 178.0449C132.9763 178.0917 131.8609 178.3621 130.4921 178.8568 126.9765 185.2724 129.0954 192.585 136.0131 195.2609 136.0672 193.5652 136.5401 192.0662 137.4316 190.7634 138.3517 189.419 139.5791 188.4898 140.5225 187.0106 142.2357 184.324 142.3587 181.6648 140.8294 178.9634 139.7276 178.4191 138.6697 178.1186 137.6549 178.0622 139.1783 183.4824 137.4769 185.9859 133.4273 189.2679 131.508 185.2563 131.9187 183.4053 133.6737 179.663 134.0824 178.8724 134.1374 178.3329 133.8386 178.0449" fill-rule="evenodd"/>
      <path transform="matrix(1,0,0,-1,0,283.4646)" d="M128.0373 174.202C127.9406 175.9439 127.8921 176.8147 127.8921 176.8147 139.1513 176.8147 144.7809 176.8147 144.7809 176.8147 144.7413 175.1111 144.7214 174.2596 144.7214 174.2596 143.5005 173.2578 142.89 172.7569 142.89 172.7569 142.8715 160.3006 142.8622 154.0723 142.8622 154.0723 142.6997 147.2794 144.2883 141.8363 147.6283 137.7431 154.5809 130.9343 169.6929 128.3751 177.2152 135.5477 177.2427 141.0503 177.2563 143.8016 177.2563 143.8016 177.0321 144.4861 176.3785 145.0959 175.2956 145.6305 175.305 147.5323 175.3098 148.483 175.3098 148.483 185.8686 148.5255 191.1478 148.5468 191.1478 148.5468 191.1478 147.1161 191.1478 146.4009 191.1478 146.4009 191.126 145.7898 190.7759 145.3113 190.0981 144.9652 189.4079 144.6854 189.0921 143.9796 189.1505 142.848 189.1928 134.7418 189.1928 134.7418 189.2137 130.6885 189.2137 130.6885 189.1945 130.0975 189.1848 129.8021 189.1848 129.8021 189.157 129.1958 188.9535 128.7485 188.5742 128.4602 183.9869 124.2459 177.6328 121.8875 171.2667 120.9515 153.2801 118.3065 133.6068 126.8592 130.5417 145.283 129.9994 148.5414 130.1227 151.8644 130.1066 155.1597 130.0487 166.8254 130.0195 172.6583 130.0195 172.6583 128.698 173.6875 128.0373 174.202" fill-rule="evenodd"/>
      <path transform="matrix(1,0,0,-1,0,283.4646)" d="M145.1565 157.9229C145.1517 168.1115 145.1492 173.2056 145.1492 173.2056 156.5909 180.9578 179.2242 179.5776 188.0838 168.3967 188.5363 168.0574 189.3081 168.027 190.3992 168.306 191.4922 167.222 192.0172 166.6661 191.9741 166.6383 185.0502 160.1331 181.5883 156.8803 181.5883 156.8803 181.0054 157.388 180.5856 157.8351 180.3288 158.222 179.547 159.3992 180.9184 160.1671 179.9371 161.337 169.5339 170.5805 153.4297 169.4982 145.1565 157.9229" fill-rule="evenodd"/>
    </g>

    <text x="260" y="135" font-family="Arial, sans-serif" font-weight="900" font-size="55" fill="#001833">NART GAZ</text>
    <text x="260" y="165" font-family="Arial, sans-serif" font-weight="bold" font-size="16" fill="#578aa9">NATURAL GAS REGULATION TECHNOLOGIES</text>
</svg>